<?xml version="1.0" encoding="UTF-8" standalone="no"?>
<svg
   width="16"
   height="16"
   version="1.1"
   id="svg1"
   sodipodi:docname="buffer_icon.svg"
   inkscape:version="1.3 (0e150ed6c4, 2023-07-21)"
   xmlns:inkscape="http://www.inkscape.org/namespaces/inkscape"
   xmlns:sodipodi="http://sodipodi.sourceforge.net/DTD/sodipodi-0.dtd"
   xmlns="http://www.w3.org/2000/svg"
   xmlns:svg="http://www.w3.org/2000/svg">
  <defs
     id="defs1" />
  <sodipodi:namedview
     id="namedview1"
     pagecolor="#505050"
     bordercolor="#eeeeee"
     borderopacity="1"
     inkscape:showpageshadow="0"
     inkscape:pageopacity="0"
     inkscape:pagecheckerboard="0"
     inkscape:deskcolor="#505050"
     showgrid="true"
     inkscape:zoom="53.4375"
     inkscape:cx="7.1391813"
     inkscape:cy="7.8502924"
     inkscape:window-width="1920"
     inkscape:window-height="1111"
     inkscape:window-x="-9"
     inkscape:window-y="-9"
     inkscape:window-maximized="1"
     inkscape:current-layer="svg1">
    <inkscape:grid
       id="grid1"
       units="px"
       originx="0"
       originy="0.75"
       spacingx="1"
       spacingy="1"
       empcolor="#0099e5"
       empopacity="0.30196078"
       color="#0099e5"
       opacity="0.14901961"
       empspacing="4"
       dotted="false"
       gridanglex="30"
       gridanglez="30"
       visible="true" />
  </sodipodi:namedview>
  <path
     style="fill:none;fill-opacity:1;stroke:#478cbf;stroke-width:2;stroke-linecap:butt;stroke-linejoin:miter;stroke-miterlimit:0;stroke-dasharray:none;stroke-opacity:1"
     id="path2"
     sodipodi:type="arc"
     sodipodi:cx="8"
     sodipodi:cy="8.75"
     sodipodi:rx="3"
     sodipodi:ry="3"
     sodipodi:start="4.712389"
     sodipodi:end="0.78539816"
     sodipodi:arc-type="arc"
     d="M 8,5.75 A 3,3 0 0 1 10.771639,7.6019497 3,3 0 0 1 10.12132,10.87132"
     sodipodi:open="true" />
  <path
     fill="none"
     stroke="#e0e0e0"
     stroke-linecap="round"
     stroke-width="1.25"
     d="m 7,1.5 h 2 m -1,0 v 2.875 m 0,-1.25 c -3.1066038,0 -5.6249976,2.5183984 -5.6249976,5.625 0,3.106602 2.5183938,5.625 5.6249976,5.625 v -1.25 m 0,1.25 c 3.106604,0 5.624998,-2.518398 5.624998,-5.625 C 13.624998,5.6433984 11.106604,3.125 8,3.125 m 5.375,5.625 h -1 m -9.875,0 h 1 m 4.5,0 2,2"
     id="path1"
     sodipodi:nodetypes="cccccscccsccccccc" />
  <circle
     cx="8"
     cy="8.75"
     r="1"
     fill="#e0e0e0"
     id="circle1" />
  <rect
     style="fill:#478cbf;stroke-width:32;stroke-miterlimit:0;fill-opacity:1"
     id="rect1"
     width="1"
     height="1"
     x="-2"
     y="-2" />
</svg>
